<?xml version="1.0" standalone="no"?>
<!DOCTYPE svg PUBLIC "-//W3C//DTD SVG 20010904//EN"
 "http://www.w3.org/TR/2001/REC-SVG-20010904/DTD/svg10.dtd">
<svg version="1.0" xmlns="http://www.w3.org/2000/svg"
 width="225.000000pt" height="582.000000pt" viewBox="0 0 225.000000 582.000000"
 preserveAspectRatio="xMidYMid meet">
<metadata>
Created by potrace 1.10, written by Peter Selinger 2001-2011
</metadata>
<g transform="translate(0.000000,582.000000) scale(0.100000,-0.100000)"
fill="#000000" stroke="none">
<path d="M1050 5721 c-117 -19 -225 -76 -316 -166 -68 -67 -82 -87 -119 -165
-78 -166 -74 -339 12 -518 36 -73 169 -208 238 -241 28 -12 59 -28 69 -33 33
-17 147 -38 211 -38 64 0 179 21 211 38 10 6 39 20 65 31 25 12 69 41 99 67
205 175 268 455 155 694 -37 78 -51 98 -119 165 -67 66 -116 96 -237 148 -43
18 -204 29 -269 18z m247 -260 c72 -38 130 -97 162 -166 28 -58 31 -75 31
-158 0 -66 -4 -99 -15 -113 -8 -10 -15 -26 -15 -35 0 -18 -107 -139 -123 -139
-6 0 -18 -6 -26 -13 -9 -8 -42 -22 -75 -32 -119 -36 -264 8 -352 108 -65 74
-83 123 -83 228 -1 108 27 178 97 248 83 82 136 102 267 97 69 -3 100 -8 132
-25z"/>
<path d="M725 4310 c-103 -21 -210 -82 -298 -172 -37 -37 -72 -78 -77 -91 -6
-12 -20 -40 -33 -62 -12 -22 -30 -62 -39 -90 -25 -74 -62 -332 -78 -550 -4
-55 -13 -138 -19 -185 -6 -47 -18 -146 -26 -220 -9 -74 -21 -169 -26 -210 -10
-70 -21 -178 -36 -343 -16 -182 88 -346 250 -398 39 -13 77 -27 83 -31 8 -6
14 -61 17 -151 5 -152 19 -337 42 -587 8 -85 15 -189 15 -230 1 -41 5 -109 11
-150 5 -41 14 -145 18 -230 15 -246 32 -403 47 -436 32 -65 19 -64 571 -64
455 0 501 1 523 17 53 37 56 45 73 267 31 382 38 469 47 621 6 83 15 186 20
230 6 44 10 125 10 180 0 55 7 159 15 230 8 72 15 167 15 211 0 54 4 85 13 91
6 5 46 20 87 33 63 20 84 32 130 79 97 97 100 109 100 344 -1 131 -6 230 -15
282 -8 44 -15 113 -15 153 0 40 -4 82 -10 92 -5 10 -14 69 -20 132 -5 62 -14
145 -19 183 -23 156 -35 266 -42 375 -11 182 -34 262 -117 415 -36 67 -162
180 -242 217 -19 9 -53 24 -75 34 -37 17 -74 19 -450 20 -226 1 -428 -1 -450
-6z m802 -232 c58 -15 141 -67 183 -114 61 -70 110 -205 110 -304 0 -53 16
-198 46 -406 8 -56 14 -117 14 -135 0 -19 7 -83 15 -144 8 -60 21 -168 29
-240 8 -71 23 -191 32 -266 19 -150 16 -171 -34 -230 -22 -27 -28 -29 -99 -29
-80 0 -126 -15 -161 -53 -24 -26 -42 -187 -67 -602 -9 -143 -20 -309 -26 -369
-6 -60 -15 -170 -19 -245 -9 -150 -27 -394 -38 -511 l-7 -75 -354 -3 c-195 -1
-358 1 -363 6 -5 5 -11 53 -13 108 -5 95 -22 317 -46 604 -6 74 -14 198 -19
275 -4 77 -12 192 -19 255 -6 63 -17 209 -25 324 -13 190 -16 210 -36 231 -38
40 -82 55 -163 55 -72 0 -76 1 -101 30 -45 54 -51 96 -33 209 10 55 17 119 17
141 0 22 6 85 14 138 18 122 35 259 46 382 5 52 14 119 19 149 6 29 11 81 11
115 0 33 7 102 15 151 8 50 15 110 15 135 1 59 31 173 64 235 43 81 134 156
221 181 57 16 709 18 772 2z"/>
</g>
</svg>
