<svg id="758f0f50-abfb-47af-abdd-9e30e9483025" data-name="Layer 1" xmlns="http://www.w3.org/2000/svg" viewBox="0 0 476 638"><defs><style>.\34 b42f618-811b-455a-b5f0-be3486e3702b{fill:#e8e8e8;}</style></defs><title>family_people_silhouettes_by_Scorp1_at_vecteezy.com [Converted]</title><path class="4b42f618-811b-455a-b5f0-be3486e3702b" d="M205.59,564.46s.61.23.61,2.38.31,7,.31,7-1.3,2.45-7.28,4.37-9.74,2.91-9.74,2.91l-3.14-1.23s-3.6,2.22-4.45,4.22-2,6.59-9.35,9.66-17.79,6.21-22.62,5.9-10.81-2.07-10.43-5.75,2.84-9.2,6.82-13.11a80.52,80.52,0,0,1,9.12-7.51,26.91,26.91,0,0,0,2.61-2.68,15.83,15.83,0,0,1,2.3-1.53,8.57,8.57,0,0,1,1.15-3.3,6.62,6.62,0,0,1,2.07-1.69s-.23-2.38.31-2.91.77-.84,1.3-.84a5.19,5.19,0,0,0,.92-.08s-1.07-2.22-.23-3.53a6.16,6.16,0,0,0,1.07-3.91c0-1.69.77-3.45.77-4.91a16.78,16.78,0,0,1,.38-3.14l-2.15-2.61s.54-1.84,3.07-8.43,3.91-10,5.14-13,2.91-6,2.53-9.89a45.63,45.63,0,0,1,.77-11.58,56,56,0,0,0,1.46-12.88c-.08-6.13-.38-15.95-.38-15.95l.61-1.07s.38-5,.54-8.05.69-5.37,0-7.05-.92-2.91-1-7.82.54-8.66.54-10.81.54-8.43.31-12.5-.69-7.28-.15-10.2,1.61-6.75,1.61-6.75a99.78,99.78,0,0,1-1.38-12.5c-.38-7.36.31-12.27-.46-17.94s-1.53-10-1.53-11.12.08-3.91.08-3.91a2.29,2.29,0,0,1-2.38,0,15.2,15.2,0,0,0-2.47-1.21s.81,2.19-.75,2.59a3.25,3.25,0,0,1-3.22-1,3.29,3.29,0,0,1-.52-.86,25.65,25.65,0,0,1-2.82-1.44,10.86,10.86,0,0,1-2.42-2.47,7.14,7.14,0,0,0-2.13-1.9c-.75-.35-1.32-1-2.42-2.53s-.86-2.07-1.15-3.57a38.75,38.75,0,0,1-.69-6,16.27,16.27,0,0,0-.52-4.49c-.4-1.55-1.21-3.39-.4-5.18s1.9-3.34,1.84-4.08a2.15,2.15,0,0,1,.63-1.9c.63-.75.92-2.07,1.73-3.57a33.36,33.36,0,0,0,1.55-3.51,1.67,1.67,0,0,1-1.44-.46,3.24,3.24,0,0,1-.35-2.93,18.52,18.52,0,0,0,.52-5.12c-.06-2.13.23-5.75.11-8.86s.75-6.1.92-10.75.23-9,1-11.44a23.61,23.61,0,0,0,1.5-7.53c.23-4.08.84-14.72,2.07-24.92s2.22-13.8,2.22-13.8l1-4.06s.31-12.5,1.07-16.41A82,82,0,0,0,171.85,203c.15-2.91,1.84-10.2,2.3-16.56s1.76-18,2.07-22.77.77-7.74.77-8.89a17.73,17.73,0,0,1,.23-3.91,47.2,47.2,0,0,0,1.15-5.75c.23-2.3.46-4.6,1.69-6.13a4,4,0,0,1,2.68-1.61l6.13-3.76a69.76,69.76,0,0,1,8.74-5.83c4.83-2.68,8-4.75,9-5.06a4.82,4.82,0,0,0,1.3-.54,10.24,10.24,0,0,1,1.69-4.68c1.46-1.92,2.07-2.68,2.07-2.68a28.42,28.42,0,0,1,1.76-4.83,13.5,13.5,0,0,1,2.84-3.91,15.78,15.78,0,0,0,1.76-1.61l-1-5-.72-.06-.37-.46h-.32l-.18-.46-.6-.14,0-.55-.55,0L214,98l-.23-.28-.18-.37-.28,0V97l-.46-.6-.32.09,0-.37-.37,0v-.28l-.32-.32.09-.14,0-.55-.23-.46.28-.23-.46,0-.32,0V94l-.28.18-.18-.23-.28-.23.14-.32-.28,0,.41-.37s-.05-.11-.12-.14a.49.49,0,0,0-.25,0l.23-.23.32-.18-.37-.41.09-.55s-.6-.83-.51-1.29a1.66,1.66,0,0,0,0-.83l-.46-.41V88l0-1-.51-.37V85.59a34.35,34.35,0,0,0-1.1-6.21c-1.06-4.37-1.7-6.72-1.52-10.21a53.67,53.67,0,0,1,.92-7,14.28,14.28,0,0,1,0-3.59,8.76,8.76,0,0,1,.41-2.25l-.28-.6s.09-.37.18-.69a1.68,1.68,0,0,1,.23-.51,10.16,10.16,0,0,1,.6-5.43c1.15-2.44,1-3.37,2.44-6.12a23.57,23.57,0,0,1,7.18-8c3.86-2.81,9.15-6,16.1-5.29S245,31,247.36,32.05c2.59,1.18,6.11,3.19,6.94,3.47a7.11,7.11,0,0,1,1.6.83s.64,1.31,1.33,1.49,1.52,1.29,1.52,1.29a6.28,6.28,0,0,1,1.29,1,7.41,7.41,0,0,1,.41,1.1l.6.69a2,2,0,0,1,.37.83,6.54,6.54,0,0,0,0,.69h.16l.23.37a1.94,1.94,0,0,1,.48.92,4.9,4.9,0,0,0,.32,1.1s-.36.36,0,1.47a18.82,18.82,0,0,1,.55,2v.37s-.49,0-.31.41a3.47,3.47,0,0,1,.51,1.38,4.46,4.46,0,0,0,.37,1.33l-.23.78a6.44,6.44,0,0,1,.28,1.66,7.66,7.66,0,0,1-.23,2.62,7.89,7.89,0,0,1,.32,2,13.87,13.87,0,0,1-.09,2.16,3,3,0,0,1,2.81,2.85,11.57,11.57,0,0,1-1,7.36,21.76,21.76,0,0,1-2.39,3.91,23.26,23.26,0,0,1-2.76,2.62l-1,.92a7.81,7.81,0,0,1-.23,1.7,3.36,3.36,0,0,1-1,1,19.87,19.87,0,0,1-.37,2.12c-.23.92-.28,1.24-.28,1.24l-.28-.64a5.11,5.11,0,0,0,0,.87,4.16,4.16,0,0,0,.41,1l-.87-.6s-.09.74-.23,1.56a6.3,6.3,0,0,1-.83,1.89l-.41.55a6.49,6.49,0,0,0,0,1.89,16.13,16.13,0,0,1,.14,1.93s1-.47,1.52,1.1c.55,1.79.87,2.53,1.2,3.4s1.06,2.76,1.06,2.76a2.88,2.88,0,0,1,2.67,1.43,9.44,9.44,0,0,0,3.22,2.9,29.59,29.59,0,0,1,2.53,2.07,6.88,6.88,0,0,0,2,1,24.26,24.26,0,0,1,3.3,1.3s6.75,1.3,9.2,1.46a45.16,45.16,0,0,1,9.51,2.07c2.68.92,8.2,2.38,11.35,3.07s4.22,1.07,6.44,1.53a18.63,18.63,0,0,1,4.06,1.38,6,6,0,0,1,6.67,4.29c1.53,5.14,2,6.59,2.68,8.74s3,6.9,3.6,11.81,1,6.36.92,9.28a34.29,34.29,0,0,1-.77,5.9,26.65,26.65,0,0,1,1.92,7.82c.54,4.91.61,7.05.84,8.51s.84,3.37.92,4.6a22.22,22.22,0,0,0,.38,2.68,64.11,64.11,0,0,1,4.06,11.81A109.12,109.12,0,0,1,337,209a28.12,28.12,0,0,1,2.68,8c1,5.06,1.3,7.44,1.76,9a67.2,67.2,0,0,1,1.38,7.28,12.16,12.16,0,0,1-.31,5.37c-.69,2.45-1.84,4.52-2.84,9a23.63,23.63,0,0,0-.69,7.82c.08,1.38-1.15,3.22-1.92,4.91s-1.69,4.29-2.3,6a34.14,34.14,0,0,1-2.68,4.91c-.92,1.61-2.22,2.84-2.84,5a44.11,44.11,0,0,1-3.45,7.13c-.84,1.53-2.45,3.91-2.45,3.91s4.52,13,6.75,21.85,2.91,12,3.3,13.34,1.38,5.52,1.38,5.52-4.75,3.53-14.34,5.44-10.35,1.61-11.88.92-2.15-1.15-3.14-1.15a2.47,2.47,0,0,0-1.53.46s.84,3.6,1.23,14,.77,15.49,1.3,20.09.77,10.73,1.15,17.1.61,13,.92,18.94.61,9.89.84,15.33.46,11,.38,16.87-.31,11-.23,14.72-.23,6.75-.15,9,.77,7.36,1,15.49,1.15,15.18.77,24.61-.54,14.87-1.23,21-1.92,12.88-1.92,12.88,2.38,3.68,4.37,6.9,3.3,5.21,3.3,7.36-.15,4.29-.15,4.29a15.51,15.51,0,0,1,3.45,5.44c1.07,3.14-.92,4-2.45,6.29s-6.06,9.28-6.06,9.28a14.51,14.51,0,0,1,.23,2.76,13.27,13.27,0,0,1-.31,2.91,35.84,35.84,0,0,1,0,4.22c-.15,1.53-.15,3.68-.15,3.68l-4.45,6.29H303.5a7.42,7.42,0,0,0-1.07,3.53c-.15,2.22.46,4.6-2.68,8.43s-10.27,7.21-16,9.51-9,4.22-18.25,2.61-8.2-4.22-8.13-6.13.08-3,.46-3.3a4.29,4.29,0,0,1,1.15-.54,31.12,31.12,0,0,1,3.91-11.81c3.53-6.29,5.14-8.74,6.82-10.81a19.51,19.51,0,0,0,2.38-3.53,36.82,36.82,0,0,1,.77-4.83,6.31,6.31,0,0,0,.38-1.92l1.15-1.69a18.9,18.9,0,0,0-.46-5.44c-.69-2.91-2.45-6.59-3.07-9.58s-1.23-5,.15-7.36,4.22-6.9,5.52-8.74a26.16,26.16,0,0,1,2.53-3.07s-4-6.67-3.14-11.73a62.15,62.15,0,0,1,3.37-12.65,34.78,34.78,0,0,0,1.61-4.22s-.92-4.6-1.53-6.29-3.14-6.36-5.06-11.88-2.53-8.36-3.45-10.58a48,48,0,0,1-3-9.51c-.54-3.3-2.3-7.21-2.45-8.82s-.84-6.67-1.15-10a58.37,58.37,0,0,0-1-8.28c-.61-2.53-1.3-4.14-1.69-6.44a23.1,23.1,0,0,1-.38-3.3,69.94,69.94,0,0,1-3.91-10c-2.07-6.44-3.76-11-4.29-14.26s-1.15-3.83-.84-4.83.54-3.3-.77-7.21a39.54,39.54,0,0,0-3.68-8.59c-1.3-2.07-2.53-4.45-2.53-4.45s-2.91,24.53-7.05,47.31-5.52,31.28-10.81,51.75-9.43,35-11.73,41.79-2.84,9.28-3.37,11.27-1.07,6.36-3.53,6.59-5.37.23-5.37.23l-.61,1.3s3.14,3.83,4.06,7.51.23,4.14,0,5.9a20,20,0,0,1-.61,3.22C205.89,563.24,205.59,564.46,205.59,564.46Z"/></svg>