<svg id="91fd8ade-22a6-47d2-bc8a-bb679c1cf12a" data-name="Layer 1" xmlns="http://www.w3.org/2000/svg" viewBox="0 0 476 638"><defs><style>.\33 6cf5d8a-4101-47cc-b462-7872850ecd12{fill:#e8e8e8;}</style></defs><title>family_people_silhouettes_by_Scorp1_at_vecteezy.com [Converted]</title><path class="36cf5d8a-4101-47cc-b462-7872850ecd12" d="M237.12,330.08c-.79,0-.66,1.83-.57,3.18s-.66,3.49-.75,5.43.26,4.06.09,5.47-.71,2.47-.44,4.15a13.85,13.85,0,0,1-.09,5.39,16.63,16.63,0,0,0-.26,5.56c.18,1.94.44,5.47.44,9.36s.22,7.15.31,9.54,0,4.94.18,10.24.71,27.64,1.5,37.83,1.06,19.47,1.06,19.47.71,5.3.71,7.28a54.55,54.55,0,0,0,.35,8.79c.53,3.62.79,10.24.79,10.24a9.18,9.18,0,0,1,.79,3.44c0,1.77.35,2.56.53,6.09s.71,9,1.06,12.63,1,6,1.15,8.48.79,5.92,1.24,10.07,1.06,9,1.06,9a102.64,102.64,0,0,1,3.88,13.42c1.15,6,2.65,15.36,2.65,15.36s.26,2.21-1.85,5.3-3.62,4.41-3.36,6a27.14,27.14,0,0,0,2,5.83c1.15,2.74,3,5.92,3.53,7.42a21.12,21.12,0,0,1,1.32,8.12c0,4.5,1.72,8.74.93,9.8s-7.68,5-12.18,3.58-8.74-4.77-11.92-6.22-10.46-3.18-10.2-6.36a34.28,34.28,0,0,0-.27-8.34,40.79,40.79,0,0,1-.4-5.3s-12.05.79-22-.79-16-2.91-16-6.62-.13-8.21,0-11.79-.66-6.22-.13-7.68.53-5.43.79-8.08.53-6.49,1.06-9.67a45,45,0,0,0,.66-10.2,75.11,75.11,0,0,1,.4-13.11c.53-4,.66-9.93.66-18.67s0-16,.4-18.81a67.14,67.14,0,0,0,0-12.71,127.26,127.26,0,0,1,0-15.89c.26-4.37.79-8.87.79-8.87s-.26-4.75-.26-9c0-4.5.26-7.42.26-7.42a76,76,0,0,1-1.72-11.92c-.66-7.95-1.19-15.76-1.19-15.76s-.79-7.14-1.46-15.63a121.6,121.6,0,0,1-.4-13.91,145.92,145.92,0,0,1-3.58-20.4c-.79-9.54-1.72-15-1.72-18s.66-12.58.66-12.58-1.15-.75-2.56-1.63a9.1,9.1,0,0,1-1.94-1.5,19.6,19.6,0,0,1-3.62-1.85,18,18,0,0,1-1.5-1.24,8.88,8.88,0,0,1-4.86-.71c-2.56-1.15-3-1.41-3-1.41l-.79.09a4.59,4.59,0,0,1-2.74-.71,42.25,42.25,0,0,1-4.33-5.47c-1.24-1.85-2-5-2.74-6.27s-3.36-3.88-4.5-7.95-1.32-5.65-2.21-6.71-4.33-5.12-4.41-6a77.19,77.19,0,0,0-2.83-8.65,62.76,62.76,0,0,0-4.33-8.48c-1.15-1.85-2-5.12-2.65-7.33s-1.32-5.56-1.06-7.15-.18-4.37-1-8.61-1.85-8.92,1.32-15.72,8.83-13.69,10.95-16.69,6.09-8.52,7.77-10.64,4.33-3.71,6.27-6.89a39.78,39.78,0,0,0,3.36-6.18c.18-.71,1-3.44,2.3-4.59a17.52,17.52,0,0,0,4.24-4.94,53.52,53.52,0,0,1,4.24-6.71c1.68-2.21,4.24-4.68,3.62-5.47s-1.5-2.74-.53-4.15,1.85-2.21,3-2.38a2.86,2.86,0,0,0,1.5-.53s1.94-2.3,2.56-2.83a10,10,0,0,1,3.09-1.5,11.69,11.69,0,0,0,3.18-.88,12.13,12.13,0,0,1,3.27-1.15,14,14,0,0,0,3.18-1.24,8.27,8.27,0,0,1,3.27-.62,4.59,4.59,0,0,0,3.36-1.15c.88-1,1.5-2.12,2.56-2.12a11,11,0,0,0,4-1.15c1.32-.62,2.65-1.41,2.65-1.41S206.08,121,207,121s1.85-.09,1.85-.09,2-2.38,3.71-4.15a35.93,35.93,0,0,0,3.71-4.41,21.88,21.88,0,0,1,1.5-2.56,1.62,1.62,0,0,1,1.32-.62s.27-3.36-.09-4.15a5.65,5.65,0,0,0-1.77-1.68l-.09,1.5-.53-.53.09,1.77-.53-.62a5.24,5.24,0,0,0-.27,1.59c.09.44-.71-.35-.71-1.77a14.73,14.73,0,0,1,.18-2.38s-1.77.18-2,1.59a13.92,13.92,0,0,0-.26,1.68l-1.15-1.5a10.23,10.23,0,0,0-1.24,4.15,10,10,0,0,0,.88,4.33c.44.88,1.24,2.65,1.24,2.65a11.7,11.7,0,0,1-2.56-5.3,8.67,8.67,0,0,1,.88-5.92l.26-1.94a1.87,1.87,0,0,0-1.85.71,5.12,5.12,0,0,0-1.06,2.83v1.06a6.61,6.61,0,0,1,.18-3.44,3.85,3.85,0,0,1,2-2.12,1.79,1.79,0,0,1-.35-2c.53-1.24,1.15-1.24,1.5-1.77a12.39,12.39,0,0,0,.79-1.59l-.18-.79-.88.79V95.09l-.79-.18.79-1.15-1.15-1.15-.62.18-.26-1.15s-.35-1.15-1-1.15a7.83,7.83,0,0,0-1.15.09s-.71.18-.35,1.32a2.81,2.81,0,0,0,.88,1.5s-.62.07-1.21-1.19a3,3,0,0,1-.26-2.19l-.73-.07a2,2,0,0,0-.2,1,5.55,5.55,0,0,0,.2.86,2.56,2.56,0,0,1-.73-1.46,5.72,5.72,0,0,1,0-1.66l-.93.6s.26,1.79.53,4.77a38.49,38.49,0,0,1-.13,8.41,53.62,53.62,0,0,1-1.13,7,12.85,12.85,0,0,1-1.19,3.24s.66-2.78.86-4,.33-2.19.33-2.19,1-3.12.6-9.93c-.26-5-.86-7-.79-7.75s.26-2.05.26-2.05l-1.39.2a13.18,13.18,0,0,0-2.38,3.31,15.61,15.61,0,0,0-.79,3.38c-.2,1.32-.86,2.65-.4,4.57a8.78,8.78,0,0,0,1.39,3.51,11,11,0,0,0,1.26,1.66,10.52,10.52,0,0,1-2.52-3.11,7.65,7.65,0,0,1-.79-5c.2-1.13.6-2.78.6-3.24s-.26-1.26-.53-.86a10.57,10.57,0,0,0-.66,4.44c.13,1.85-.07,4.44,1.79,6.75a8.69,8.69,0,0,0,3.11,2.78,5.41,5.41,0,0,1-3.51-2.25,9.72,9.72,0,0,1-2.25-6.16c.07-1.79.07-4.44.07-4.44a3.48,3.48,0,0,0-.73,2.25c0,1.46.07,2.85.07,2.85a13.17,13.17,0,0,1-.27-4.83A6.48,6.48,0,0,1,196.79,89c1.06-1.46,3-3.91,3-3.91a7.67,7.67,0,0,1-.2-1.92c.07-.79.07-1.32.07-1.32a3.12,3.12,0,0,1-.73-1.32,4.66,4.66,0,0,1,0-1.06l-.4-.93s-.26,0-.6.53a2.34,2.34,0,0,1-.53.66,3.49,3.49,0,0,1-.07-1.39c.13-.66.2-1.39.2-1.39a21.28,21.28,0,0,1-1.06-2.38,6.72,6.72,0,0,1-.4-2.71,10.62,10.62,0,0,0-.2-1.92,3.47,3.47,0,0,1-2.52-2.05,6.84,6.84,0,0,1-.73-4.5,4.35,4.35,0,0,1,.73-1.46s.13-3.44.4-4.9a4.45,4.45,0,0,1,.79-2.05,13.22,13.22,0,0,1,1.59-3.71c.93-1.19,1.59-2.19,2.25-2.19h1.32l1.72-1.72a4.5,4.5,0,0,1,2.71-1.59c.93,0,2.12.07,2.12.07L207.58,44s.2-2,.26-2.78.13-2.05.13-2.05a9.9,9.9,0,0,1,.33,2.25c0,1.06-.2,2.58.33,2.58s1-1,1.52-1.32,1.59-.93,1.59-.93l.79-.07-.79.53,1.26-.13a3.28,3.28,0,0,1,1.32-.66,1.31,1.31,0,0,1,.79.07,2.5,2.5,0,0,0-1,.46,3.92,3.92,0,0,0-.33.53,7.83,7.83,0,0,0,1.06-.07c.33-.07.73-.73,1.46-.73a2.92,2.92,0,0,0,1.46-.53s.66-1.32,1.26-1.59.86-1.39,1.59-1.59a3.28,3.28,0,0,1,1.66.13l1.06-.86s.66-1.13,1.32-1.13a3.27,3.27,0,0,1,1.46.53,7.38,7.38,0,0,1,3-.66c1.66,0,2.12.79,2.12.79a2.49,2.49,0,0,1,1.39-.46,8.3,8.3,0,0,1,1.46.13,14.92,14.92,0,0,1,3.51-.93,14.18,14.18,0,0,1,2.78.2,15.46,15.46,0,0,1,5.17.2,20.38,20.38,0,0,1,5,1.92s5.83,1.72,9.47,9,3.44,9.07,3.44,9.07,1.32,3.84,1.79,6.09a27,27,0,0,1,.53,4,12.56,12.56,0,0,0-.86-2.78c-.6-1.26-.93-2.19-.93-2.19s.53,2.72.79,4.3a19.11,19.11,0,0,1-.07,4.24,29.14,29.14,0,0,0,.07,3.18c.13,1.72.2,3.31.2,4.64a27,27,0,0,1-.86,4.5s-.4,1.72-.46,2.25a16,16,0,0,0,0,1.79,11.07,11.07,0,0,0,0,2.58,14.63,14.63,0,0,1,.53,3c0,1.19.07,2.78.07,3.91s-.13,2.91-.13,2.91-.13-1.66-.26-2.91a5.28,5.28,0,0,0-.46-1.85,4.37,4.37,0,0,0-.6,1.92,4.94,4.94,0,0,1-.6,2,32.54,32.54,0,0,0,.33-3.58,18,18,0,0,0-.79-3.84,14.54,14.54,0,0,1-1.06,3.64,22,22,0,0,1-2.05,3.64,13.87,13.87,0,0,1-.53,4.3c-.66,2.25-.93,3.38-1.85,4a8.35,8.35,0,0,1-2.91.93,9.28,9.28,0,0,1,.53,2.58v1.52s3.77-.2,5.3,1.85a29.28,29.28,0,0,1,2.91,5.83,4.19,4.19,0,0,1,2.05.4c.66.46,1.19.86,1.19.86a5.09,5.09,0,0,1,2.45.93,24.38,24.38,0,0,0,2.58,1.72,12.19,12.19,0,0,0,2.25.73l1.19.66s1.79.46,2.85.6,6.49,1.13,8.94,2.38a39.06,39.06,0,0,1,5.17,3.18,3.43,3.43,0,0,0,2.71.53l.73.66.26.79a8,8,0,0,1,3.84,3.31c1.13,2.25,1.19,3.24,1.85,4.64s1.52,2,1.79,3.71a39.28,39.28,0,0,0,.93,4.7c.46,1.72.73,2.65,1.52,5.7s1.52,5.17,1.59,6.56.79,3.51,2.12,7.42,3.31,9.2,4.5,14.1,2.38,8.81,3,12.85A98.51,98.51,0,0,0,318.17,207a130.24,130.24,0,0,1,3.71,17.75c1.32,8.94,2.19,10.53,2.45,18.28s.33,10.33.4,12.91.93,3.71-.73,9.93-3,9.34-3.11,10.93-.13,3-.2,4a10.82,10.82,0,0,1-.53,2.38s1.79,3.58,1.59,6.36-.86,5.36-1.06,6.89-.6,8.15-1.32,11.39-.93,4.85-1.13,5.89-.4,1.66-.07,2.05.6,1.32-.13,1.72a2.72,2.72,0,0,1-1.66.2,13.47,13.47,0,0,1-.26,4.3c-.53,2.32-1.32,3.84-.79,6a26,26,0,0,1,1.13,7.81c-.13,3.18-.07,5.24-.26,7.55s-.4,3.71-.4,3.71.34,2.06-.46,2.72a2,2,0,0,1-2.52.33,106.68,106.68,0,0,1,4.77,13c1.79,6.42,3.44,12.12,5.63,18.48s3.38,9.67,4.17,11.65,1.39,4.77,2.12,7,1.59,4.64,2.05,5.63a8.06,8.06,0,0,1,1,3.44c0,1.32,1.52,4.77,2.65,10.53a102.55,102.55,0,0,1,2,14.57,60.86,60.86,0,0,0,1.52,12.52c1.19,5,4,16.69,5.5,23.77s3.31,13.71,4.17,19.34,2.25,9.07,3,13.64.73,6.69,1.72,10.2a83.34,83.34,0,0,1,2.19,11.72c.46,3.77.86,5.5.86,5.5a30.21,30.21,0,0,1,2.38,5.63c1.19,3.64,2.19,5.76,2.32,7.42a29.35,29.35,0,0,0,1.39,6c.73,2.32,1.66,4.24,2.12,6.42a13,13,0,0,1,.26,3.84s-5.83,4-9.07,5a37.69,37.69,0,0,1-5.1,1.26,10.84,10.84,0,0,1,1.85,2.58c.66,1.39,1.72,4.24,1.72,4.24s.86,1.06,2.32,3a22.55,22.55,0,0,0,3.77,4.24c1.32,1.13,3.84,2.38,5.3,3.71s2.78,2.65,3.71,3.58,2.71,2.32,3.58,3a13,13,0,0,0,3.38,2,30,30,0,0,1,4.9,2.25c1,.73,1.59,1,1.72,1.72s.33,1.39.33,1.39,1.08,1.51-.4,2.25a27.38,27.38,0,0,1-7.95,2.52,69.3,69.3,0,0,1-15.89-.33c-6.36-.86-9-1.59-11.06-1.72s-6.16-.6-7.68-2.25a9.9,9.9,0,0,1-2.05-4,14.51,14.51,0,0,1-2.19-3.51,28.1,28.1,0,0,0-5.56-8.74L322.94,575v16.75h-7.28l-4.9-4.37s0-9.14-.53-12.58a13.63,13.63,0,0,0-1.19-4.5s-6.75.26-9.8,0-5-1.06-6.22-1.06-1.32-.13-1.32-.13a64.8,64.8,0,0,1-.93-8.34c0-3,.26-4.77-.26-7.95a32,32,0,0,1-.66-8.34,26.49,26.49,0,0,0-.13-9.14,72.47,72.47,0,0,1-1.59-14.7c.13-5.17-.4-11-2.65-20.66s-2.38-16.56-2.78-20-.66-7-1.19-9.8-.4-8.74-1.32-16S277.51,438.82,277,434s-1.06-9.14-1.19-11.39-2.68-7.46-4.9-11.79c-2.52-4.9-5.43-11.79-9-23.31s-5.69-18-6.49-19.87a47.85,47.85,0,0,1-1.59-6.36,63.75,63.75,0,0,0-2.38-8.34,108,108,0,0,0-4.64-11.13c-1.72-3.31-3.58-3.84-5-6s-2-2.65-2.91-4S237.91,330.08,237.12,330.08Z"/></svg>